<svg width="48" height="48" viewBox="0 0 48 48" fill="none" xmlns="http://www.w3.org/2000/svg">
    <path fill-rule="evenodd" clip-rule="evenodd" d="M9 33a6.003 6.003 0 0 0-4.243 1.757A6.003 6.003 0 0 0 3 39v3a1 1 0 0 0 1 1h10a1 1 0 0 0 1-1v-3a6.003 6.003 0 0 0-1.757-4.243A6.003 6.003 0 0 0 9 33zM39 33a6.003 6.003 0 0 0-4.243 1.757A6.003 6.003 0 0 0 33 39v3a1 1 0 0 0 1 1h10a1 1 0 0 0 1-1v-3a6.003 6.003 0 0 0-1.757-4.243A6.003 6.003 0 0 0 39 33zM24 29a7 7 0 0 0-7 7v6a1 1 0 0 0 1 1h12a1 1 0 0 0 1-1v-6a7 7 0 0 0-7-7zM39 21a6 6 0 0 0-10.299-4.185 6.998 6.998 0 0 1-.866 11.041 9.016 9.016 0 0 1 4.937 6.123 7.992 7.992 0 0 1 2.674-2.146A5.993 5.993 0 0 1 33 27c0-3.311 2.689-6 6-6zM19.299 16.815A6 6 0 0 0 9 21c3.311 0 6 2.689 6 6 0 1.982-.963 3.74-2.446 4.833a7.992 7.992 0 0 1 2.674 2.146 9.016 9.016 0 0 1 4.937-6.123 6.998 6.998 0 0 1-.866-11.041z" fill="#002669"/>
    <path fill-rule="evenodd" clip-rule="evenodd" d="M39 31c-2.208 0-4-1.792-4-4s1.792-4 4-4 4 1.792 4 4-1.792 4-4 4zM9.052 31H9c-2.208 0-4-1.792-4-4s1.792-4 4-4 4 1.792 4 4a4.002 4.002 0 0 1-3.948 4z" fill="#002669"/>
    <path d="M24 27a5 5 0 1 0 0-10 5 5 0 0 0 0 10zM15 13a4 4 0 1 0 0-8 4 4 0 0 0 0 8zM33 13a4 4 0 1 0 0-8 4 4 0 0 0 0 8z" fill="#002669"/>
</svg>
