<svg width="42" height="28" viewBox="0 0 42 28" fill="none" xmlns="http://www.w3.org/2000/svg">
    <path d="M13.617 15.297a6.087 6.087 0 0 0-5.952 4.847h11.904a6.088 6.088 0 0 0-5.952-4.847zM13.617 12.77a2.46 2.46 0 1 0 0-4.922 2.46 2.46 0 0 0 0 4.922z" fill="#002669"/>
    <path d="M38.309.465H3.69A3.696 3.696 0 0 0 0 4.156v19.688a3.696 3.696 0 0 0 3.691 3.691H38.31A3.696 3.696 0 0 0 42 23.844V4.156A3.696 3.696 0 0 0 38.309.465zm-17.384 22.14H6.309a1.23 1.23 0 0 1-1.23-1.23c0-3.416 2.016-6.37 4.92-7.733a4.903 4.903 0 0 1-1.304-3.333 4.927 4.927 0 0 1 4.922-4.922 4.927 4.927 0 0 1 4.922 4.922 4.902 4.902 0 0 1-1.305 3.333c2.905 1.364 4.921 4.317 4.921 7.733 0 .68-.55 1.23-1.23 1.23zm9.919.008h-4.922a1.23 1.23 0 1 1 0-2.46h4.922a1.23 1.23 0 0 1 0 2.46zm4.922-4.922h-9.844a1.23 1.23 0 1 1 0-2.46h9.844a1.23 1.23 0 1 1 0 2.46zm0-4.921h-9.844a1.23 1.23 0 1 1 0-2.461h9.844a1.23 1.23 0 1 1 0 2.46zm0-4.922h-9.844a1.23 1.23 0 1 1 0-2.461h9.844a1.23 1.23 0 1 1 0 2.46z" fill="#002669"/>
</svg>
