<svg width="36" height="36" viewBox="0 0 36 36" fill="none" xmlns="http://www.w3.org/2000/svg">
<path d="M25.7964 8.61743C26.2218 9.53373 26.5389 10.4965 26.7414 11.4862C28.2797 12.3215 29.6018 13.5043 30.6026 14.9404C31.6034 16.3765 32.2553 18.0263 32.5064 19.7586C32.7575 21.4909 32.601 23.2579 32.0491 24.9191C31.4973 26.5803 30.5655 28.0898 29.3277 29.3275C28.09 30.5652 26.5805 31.4971 24.9194 32.0489C23.2582 32.6007 21.4912 32.7573 19.7588 32.5062C18.0265 32.2551 16.3767 31.6032 14.9406 30.6024C13.5045 29.6015 12.3218 28.2794 11.4864 26.7412C10.4967 26.5387 9.53398 26.2215 8.61768 25.7962C9.36728 27.9571 10.6536 29.8922 12.356 31.4198C14.0584 32.9473 16.1211 34.0173 18.3503 34.5293C20.5795 35.0413 22.9023 34.9785 25.1006 34.3468C27.2989 33.715 29.3007 32.5351 30.918 30.9178C32.5354 29.3004 33.7153 27.2987 34.347 25.1004C34.9787 22.9021 35.0415 20.5793 34.5296 18.35C34.0176 16.1208 32.9476 14.0582 31.42 12.3558C29.8924 10.6534 27.9574 9.36704 25.7964 8.61743Z" fill="white"/>
<path d="M21.3751 7.87507C22.8801 7.87164 24.3749 8.12268 25.7963 8.61757C24.9206 6.72835 23.6017 5.07844 21.9519 3.80799C20.302 2.53755 18.3699 1.68412 16.3196 1.3202C14.2693 0.956284 12.1615 1.09264 10.1752 1.71768C8.18891 2.34272 6.38283 3.43798 4.9104 4.9104C3.43798 6.38283 2.34272 8.18891 1.71768 10.1752C1.09264 12.1615 0.956284 14.2693 1.3202 16.3196C1.68412 18.3699 2.53755 20.302 3.80799 21.9519C5.07844 23.6017 6.72835 24.9206 8.61757 25.7963C8.12268 24.3749 7.87164 22.8801 7.87507 21.3751C7.87507 17.7946 9.29739 14.3609 11.8291 11.8291C14.3609 9.29739 17.7946 7.87507 21.3751 7.87507Z" fill="white"/>
<path d="M10.125 21.375C10.1247 23.2492 10.5926 25.0938 11.4863 26.7412C13.5801 27.1668 15.7468 27.0671 17.7928 26.4511C19.8387 25.8351 21.7003 24.722 23.2111 23.2111C24.722 21.7003 25.8351 19.8387 26.4511 17.7928C27.0671 15.7468 27.1668 13.5801 26.7412 11.4862C25.0276 10.5562 23.1017 10.0875 21.1523 10.1261C19.203 10.1647 17.2971 10.7093 15.6216 11.7064C13.9461 12.7035 12.5586 14.119 11.595 15.8139C10.6314 17.5089 10.1248 19.4252 10.125 21.375Z" fill="white"/>
</svg>
