<svg width="38" height="39" viewBox="0 0 38 39" fill="none" xmlns="http://www.w3.org/2000/svg">
<path fill-rule="evenodd" clip-rule="evenodd" d="M30.0264 9.31855H28.4123V7.11826L22.5323 1.23828H6.89507V6.90184H5.28066C4.00009 6.90184 2.94493 7.94773 2.94493 9.23743V20.0772H7.81501V2.15837H22.1445L22.5322 2.53689V7.11834H27.1136L27.4924 7.49715V13.4222H32.3532V11.6543C32.3533 10.3736 31.307 9.31855 30.0264 9.31855ZM28.827 18.535C29.9092 18.7696 30.9282 19.2026 31.8301 19.7795L33.0112 19.2567C33.2278 19.1665 33.4986 19.2297 33.6966 19.4279L34.8692 20.6005C35.0674 20.7986 35.1309 21.0691 35.0313 21.2857L34.5085 22.4668C35.0946 23.3688 35.5184 24.3789 35.7527 25.47L36.9612 25.93C37.178 26.0201 37.322 26.2545 37.322 26.5339V28.1935C37.322 28.473 37.178 28.7075 36.9612 28.7977L35.7527 29.2576C35.5185 30.3489 35.0947 31.359 34.5085 32.2605L35.0313 33.4422C35.131 33.6586 35.0674 33.929 34.8692 34.1274L33.6966 35.2996C33.4986 35.4983 33.2278 35.5611 33.0112 35.4712L31.8301 34.9389C30.9282 35.525 29.9092 35.9579 28.827 36.1836L28.3584 37.3921C28.2768 37.6172 28.0427 37.7617 27.7629 37.7617H26.0947C25.8241 37.7617 25.5894 37.6172 25.4993 37.3921L25.0396 36.1836C23.9482 35.9579 22.9384 35.525 22.0365 34.9389L20.8551 35.4712C20.6297 35.5612 20.3681 35.4983 20.1696 35.2996L18.9884 34.1274C18.7989 33.9289 18.7359 33.6586 18.826 33.4422L19.3492 32.2605C18.763 31.359 18.3393 30.3489 18.1046 29.2576L16.9054 28.7977C16.6796 28.7075 16.5353 28.473 16.5353 28.1935V26.5339C16.5353 26.2545 16.6796 26.0201 16.9054 25.93L18.1046 25.47C18.3392 24.3789 18.7629 23.3688 19.3492 22.4668L18.826 21.2857C18.7359 21.0691 18.799 20.7986 18.9884 20.6005L20.1696 19.4279C20.3682 19.2297 20.6297 19.1666 20.8551 19.2567L22.0365 19.7795C22.9384 19.2026 23.9482 18.7696 25.0396 18.535L25.4993 17.3357C25.5894 17.1101 25.8241 16.9661 26.0947 16.9661H27.7629C28.0427 16.9661 28.2768 17.1101 28.3584 17.3357L28.827 18.535ZM26.9332 21.4749C30.1798 21.4749 32.8131 24.1171 32.8131 27.3639C32.8131 30.6104 30.1799 33.2524 26.9332 33.2524C23.6779 33.2524 21.0444 30.6104 21.0444 27.3639C21.0444 24.1171 23.6779 21.4749 26.9332 21.4749ZM25.3009 12.1414C25.5533 12.1414 25.7609 12.3487 25.7609 12.6012C25.7609 12.8538 25.5533 13.0521 25.3009 13.0521H10.0062C9.75368 13.0521 9.54646 12.8538 9.54646 12.6012C9.54646 12.3487 9.75368 12.1414 10.0062 12.1414H25.3009ZM17.446 5.48589C17.6986 5.48589 17.9058 5.69363 17.9058 5.94583C17.9058 6.19832 17.6986 6.40576 17.446 6.40576H10.0062C9.75368 6.40576 9.54646 6.19832 9.54646 5.94583C9.54646 5.69363 9.75368 5.48589 10.0062 5.48589H17.446ZM25.3009 8.81357C25.5533 8.81357 25.7609 9.02086 25.7609 9.2735C25.7609 9.52614 25.5533 9.73358 25.3009 9.73358H14.1635C13.9113 9.73358 13.7038 9.52614 13.7038 9.2735C13.7038 9.02086 13.9113 8.81357 14.1635 8.81357H25.3009ZM12.0984 8.81357C12.351 8.81357 12.5495 9.02086 12.5495 9.2735C12.5495 9.52614 12.351 9.73358 12.0984 9.73358H10.0062C9.75375 9.73358 9.54654 9.52614 9.54654 9.2735C9.54654 9.02086 9.75375 8.81357 10.0062 8.81357H12.0984ZM9.87109 20.988L15.0834 14.3417H34.8784C35.2031 14.3417 35.4824 14.4681 35.6807 14.7203C35.8882 14.964 35.9692 15.2706 35.9064 15.586L35.1311 19.5631L34.3371 18.7785C33.8954 18.3277 33.228 18.1656 32.6416 18.4268L31.8933 18.7515C31.1449 18.3187 30.342 17.9851 29.5126 17.7594L29.2149 17.002C28.9892 16.4068 28.3944 16.0552 27.763 16.0552H26.0948C25.4633 16.0552 24.8772 16.4068 24.6429 17.002L24.3541 17.7594C23.5153 17.9851 22.7129 18.3187 21.9644 18.7515L21.2247 18.4268C20.6387 18.1656 19.9714 18.3277 19.5203 18.7785L18.3481 19.9511C17.8973 20.4019 17.7258 21.0691 17.9874 21.6553L18.321 22.3948C17.8881 23.1434 17.5544 23.9461 17.3291 24.7848L16.5716 25.0733C15.9764 25.3077 15.6248 25.9033 15.6248 26.534V28.1936C15.6248 28.8249 15.9764 29.42 16.5716 29.6455L17.3291 29.9433C17.5544 30.7727 17.8881 31.5842 18.321 32.333L17.9874 33.0725C17.834 33.4331 17.834 33.8209 17.9603 34.1726H4.1898C3.50431 34.1726 2.92689 33.7036 2.80087 33.0272L0.699734 22.2326C0.636351 21.9169 0.708418 21.6193 0.916008 21.3668C1.1236 21.1231 1.40311 20.988 1.72759 20.988H9.87109V20.988Z" fill="white"/>
</svg>
