<svg width="42" height="28" viewBox="0 0 42 28" fill="none" xmlns="http://www.w3.org/2000/svg">
<path d="M13.6172 15.2974C10.6875 15.2974 8.2354 17.3809 7.66504 20.1443H19.5694C18.9991 17.381 16.547 15.2974 13.6172 15.2974Z" fill="white"/>
<path d="M13.6172 12.7695C14.9763 12.7695 16.0781 11.6677 16.0781 10.3086C16.0781 8.94946 14.9763 7.84766 13.6172 7.84766C12.258 7.84766 11.1562 8.94946 11.1562 10.3086C11.1562 11.6677 12.258 12.7695 13.6172 12.7695Z" fill="white"/>
<path d="M38.3086 0.464844H3.69141C1.65596 0.464844 0 2.12081 0 4.15625V23.8438C0 25.8792 1.65596 27.5352 3.69141 27.5352H38.3086C40.344 27.5352 42 25.8792 42 23.8438V4.15625C42 2.12081 40.344 0.464844 38.3086 0.464844ZM20.925 22.6052H6.30935C5.6298 22.6052 5.07888 22.0542 5.07888 21.3747C5.07888 17.959 7.09521 15.0059 9.99977 13.6418C9.1907 12.7644 8.69531 11.5934 8.69531 10.3086C8.69531 7.59467 10.9033 5.38672 13.6172 5.38672C16.3311 5.38672 18.5391 7.59467 18.5391 10.3086C18.5391 11.5934 18.0437 12.7644 17.2345 13.6418C20.1392 15.0059 22.1554 17.9591 22.1554 21.3747C22.1555 22.0543 21.6046 22.6052 20.925 22.6052ZM30.8438 22.6133H25.9219C25.2423 22.6133 24.6914 22.0624 24.6914 21.3828C24.6914 20.7033 25.2423 20.1523 25.9219 20.1523H30.8438C31.5233 20.1523 32.0742 20.7033 32.0742 21.3828C32.0742 22.0624 31.5233 22.6133 30.8438 22.6133ZM35.7656 17.6914H25.9219C25.2423 17.6914 24.6914 17.1405 24.6914 16.4609C24.6914 15.7814 25.2423 15.2305 25.9219 15.2305H35.7656C36.4452 15.2305 36.9961 15.7814 36.9961 16.4609C36.9961 17.1405 36.4452 17.6914 35.7656 17.6914ZM35.7656 12.7695H25.9219C25.2423 12.7695 24.6914 12.2186 24.6914 11.5391C24.6914 10.8595 25.2423 10.3086 25.9219 10.3086H35.7656C36.4452 10.3086 36.9961 10.8595 36.9961 11.5391C36.9961 12.2186 36.4452 12.7695 35.7656 12.7695ZM35.7656 7.84766H25.9219C25.2423 7.84766 24.6914 7.29673 24.6914 6.61719C24.6914 5.93764 25.2423 5.38672 25.9219 5.38672H35.7656C36.4452 5.38672 36.9961 5.93764 36.9961 6.61719C36.9961 7.29673 36.4452 7.84766 35.7656 7.84766Z" fill="white"/>
</svg>
