<svg width="48" height="48" viewBox="0 0 48 48" fill="none" xmlns="http://www.w3.org/2000/svg">
<path fill-rule="evenodd" clip-rule="evenodd" d="M9 33C7.409 33 5.883 33.632 4.757 34.757C3.632 35.883 3 37.409 3 39V42C3 42.552 3.448 43 4 43H14C14.552 43 15 42.552 15 42V39C15 37.409 14.368 35.883 13.243 34.757C12.117 33.632 10.591 33 9 33Z" fill="white"/>
<path fill-rule="evenodd" clip-rule="evenodd" d="M39 33C37.409 33 35.883 33.632 34.757 34.757C33.632 35.883 33 37.409 33 39V42C33 42.552 33.448 43 34 43H44C44.552 43 45 42.552 45 42V39C45 37.409 44.368 35.883 43.243 34.757C42.117 33.632 40.591 33 39 33Z" fill="white"/>
<path fill-rule="evenodd" clip-rule="evenodd" d="M24 29C20.134 29 17 32.134 17 36V42C17 42.552 17.448 43 18 43H30C30.552 43 31 42.552 31 42V36C31 32.134 27.866 29 24 29Z" fill="white"/>
<path fill-rule="evenodd" clip-rule="evenodd" d="M39 21C39 17.686 36.314 15 33 15C31.314 15 29.791 15.695 28.701 16.815C30.113 18.096 31 19.945 31 22C31 24.448 29.74 26.605 27.835 27.856C30.298 29.017 32.149 31.264 32.772 33.979C32.95 33.758 33.141 33.546 33.343 33.343C33.963 32.723 34.675 32.215 35.446 31.833C33.963 30.74 33 28.982 33 27C33 23.689 35.689 21 39 21Z" fill="white"/>
<path fill-rule="evenodd" clip-rule="evenodd" d="M19.299 16.815C18.209 15.695 16.686 15 15 15C11.686 15 9 17.686 9 21C12.311 21 15 23.689 15 27C15 28.982 14.037 30.74 12.554 31.833C13.325 32.215 14.037 32.723 14.657 33.343C14.859 33.546 15.05 33.758 15.228 33.979C15.851 31.264 17.702 29.017 20.165 27.856C18.26 26.605 17 24.448 17 22C17 19.945 17.887 18.096 19.299 16.815Z" fill="white"/>
<path fill-rule="evenodd" clip-rule="evenodd" d="M39 31C36.792 31 35 29.208 35 27C35 24.792 36.792 23 39 23C41.208 23 43 24.792 43 27C43 29.208 41.208 31 39 31Z" fill="white"/>
<path fill-rule="evenodd" clip-rule="evenodd" d="M9.052 31H9C6.792 31 5 29.208 5 27C5 24.792 6.792 23 9 23C11.208 23 13 24.792 13 27C13 29.19 11.236 30.972 9.052 31Z" fill="white"/>
<path d="M24 27C26.7614 27 29 24.7614 29 22C29 19.2386 26.7614 17 24 17C21.2386 17 19 19.2386 19 22C19 24.7614 21.2386 27 24 27Z" fill="white"/>
<path d="M15 13C17.2091 13 19 11.2091 19 9C19 6.79086 17.2091 5 15 5C12.7909 5 11 6.79086 11 9C11 11.2091 12.7909 13 15 13Z" fill="white"/>
<path d="M33 13C35.2091 13 37 11.2091 37 9C37 6.79086 35.2091 5 33 5C30.7909 5 29 6.79086 29 9C29 11.2091 30.7909 13 33 13Z" fill="white"/>
</svg>
