<svg width="38" height="39" viewBox="0 0 38 39" fill="none" xmlns="http://www.w3.org/2000/svg">
    <path fill-rule="evenodd" clip-rule="evenodd" d="M30.026 9.319h-1.614v-2.2l-5.88-5.88H6.895v5.663H5.281a2.342 2.342 0 0 0-2.336 2.335v10.84h4.87V2.158h14.33l.387.379v4.581h4.582l.378.38v5.924h4.861v-1.768a2.34 2.34 0 0 0-2.327-2.335zm-1.199 9.216a9.215 9.215 0 0 1 3.003 1.244l1.181-.522c.217-.09.488-.027.686.17l1.172 1.174c.198.198.262.468.162.685l-.523 1.18a8.938 8.938 0 0 1 1.245 3.004l1.208.46c.217.09.361.325.361.604v1.66c0 .279-.144.514-.36.604l-1.21.46a8.926 8.926 0 0 1-1.244 3.003l.523 1.181c.1.217.036.487-.162.685L33.697 35.3c-.198.198-.47.261-.686.171l-1.18-.532a8.838 8.838 0 0 1-3.004 1.245l-.469 1.208c-.081.225-.315.37-.595.37h-1.668c-.27 0-.506-.145-.596-.37l-.46-1.208a8.763 8.763 0 0 1-3.003-1.245l-1.18.532c-.226.09-.488.027-.686-.171l-1.182-1.173c-.19-.198-.252-.468-.162-.685l.523-1.181a8.937 8.937 0 0 1-1.244-3.003l-1.2-.46c-.225-.09-.37-.325-.37-.604v-1.66c0-.28.145-.514.37-.604l1.2-.46a8.94 8.94 0 0 1 1.244-3.003l-.523-1.181c-.09-.217-.027-.487.162-.686l1.182-1.172c.198-.198.46-.261.685-.171l1.181.522a9.133 9.133 0 0 1 3.004-1.244l.46-1.2c.09-.225.324-.369.595-.369h1.668c.28 0 .514.144.595.37l.469 1.199zm-1.894 2.94c3.247 0 5.88 2.642 5.88 5.889 0 3.246-2.633 5.888-5.88 5.888a5.89 5.89 0 0 1-5.889-5.888 5.89 5.89 0 0 1 5.89-5.89zm-1.632-9.334c.252 0 .46.208.46.46 0 .253-.208.451-.46.451H10.006a.454.454 0 0 1-.46-.45c0-.253.208-.46.46-.46h15.295zm-7.855-6.655c.253 0 .46.208.46.46s-.207.46-.46.46h-7.44a.462.462 0 0 1-.46-.46c0-.252.208-.46.46-.46h7.44zm7.855 3.328c.252 0 .46.207.46.46 0 .252-.208.46-.46.46H14.164a.462.462 0 0 1-.46-.46c0-.253.207-.46.46-.46H25.3zm-13.203 0c.253 0 .451.207.451.46 0 .252-.198.46-.45.46h-2.093a.462.462 0 0 1-.46-.46c0-.253.208-.46.46-.46h2.092zM9.871 20.988l5.212-6.646h19.795c.325 0 .604.126.803.378.207.244.288.55.225.866l-.775 3.977-.794-.784c-.442-.451-1.109-.613-1.695-.352l-.749.325a10.015 10.015 0 0 0-2.38-.993l-.298-.757c-.226-.595-.82-.947-1.452-.947h-1.668c-.632 0-1.218.352-1.452.947l-.289.757a9.921 9.921 0 0 0-2.39.992l-.74-.324c-.585-.261-1.253-.1-1.704.352l-1.172 1.172c-.45.45-.622 1.118-.36 1.704l.333.74a9.906 9.906 0 0 0-.992 2.39l-.757.288c-.596.235-.947.83-.947 1.461v1.66c0 .63.351 1.226.947 1.451l.757.298c.225.83.56 1.641.992 2.39l-.334.74c-.153.36-.153.748-.027 1.1H4.19a1.395 1.395 0 0 1-1.39-1.146L.7 22.233a1.006 1.006 0 0 1 .216-.866 1.04 1.04 0 0 1 .812-.379H9.87z" fill="#002669"/>
</svg>
