<svg width="36" height="36" viewBox="0 0 36 36" fill="none" xmlns="http://www.w3.org/2000/svg">
    <path d="M25.796 8.617c.426.917.743 1.88.945 2.87A11.25 11.25 0 1 1 11.486 26.74c-.99-.202-1.952-.52-2.868-.945A13.5 13.5 0 1 0 25.796 8.617z" fill="#002669"/>
    <path d="M21.375 7.875c1.505-.003 3 .248 4.421.743A12.938 12.938 0 1 0 8.618 25.796a13.354 13.354 0 0 1-.743-4.421 13.5 13.5 0 0 1 13.5-13.5z" fill="#002669"/>
    <path d="M10.125 21.375c0 1.874.468 3.719 1.361 5.366a12.937 12.937 0 0 0 15.255-15.255 11.25 11.25 0 0 0-16.616 9.889z" fill="#002669"/>
</svg>
