<svg width="38" height="39" viewBox="0 0 38 39" fill="none" xmlns="http://www.w3.org/2000/svg">
    <g clip-path="url(#oaiw6y4bza)" fill="#002669">
        <path d="M9.722 26.62a5.989 5.989 0 1 0 0-11.978 5.989 5.989 0 0 0 0 11.977zM28.278 12.487a5.989 5.989 0 1 0 0-11.978 5.989 5.989 0 0 0 0 11.978z"/>
        <path fill-rule="evenodd" clip-rule="evenodd" d="M35.35 28.331a1.325 1.325 0 0 1 2.65.004l-.005 5.303a4.859 4.859 0 0 1-4.858 4.853h-9.72a1.325 1.325 0 0 1 0-2.65h9.72a2.209 2.209 0 0 0 2.208-2.206l.005-5.304zM2.66 10.669a1.325 1.325 0 0 1-2.65-.004l.004-5.303A4.858 4.858 0 0 1 4.873.509h13.244a1.325 1.325 0 0 1 0 2.65H4.873a2.209 2.209 0 0 0-2.209 2.206L2.66 10.67zM15.46 25.846a9.715 9.715 0 0 1 3.982 7.845c0 1.377-.868 2.576-2.463 3.401-1.761.912-4.507 1.4-7.257 1.4-2.753 0-5.498-.488-7.26-1.4C.868 36.267 0 35.068 0 33.692a9.715 9.715 0 0 1 3.982-7.846 7.736 7.736 0 0 0 5.74 2.54c2.272 0 4.32-.978 5.738-2.54zM34.018 11.713A9.715 9.715 0 0 1 38 19.558c0 1.377-.867 2.576-2.463 3.401-1.76.912-4.506 1.4-7.259 1.4-2.75 0-5.496-.489-7.257-1.4-1.595-.825-2.463-2.025-2.463-3.4a9.715 9.715 0 0 1 3.982-7.846 7.732 7.732 0 0 0 5.738 2.54c2.274 0 4.32-.979 5.74-2.54z"/>
    </g>
    <defs>
        <clipPath id="oaiw6y4bza">
            <path fill="#fff" transform="translate(0 .5)" d="M0 0h38v38H0z"/>
        </clipPath>
    </defs>
</svg>
