<svg width="38" height="39" viewBox="0 0 38 39" fill="none" xmlns="http://www.w3.org/2000/svg">
<g clip-path="url(#clip0_301_1017)">
<path d="M9.72175 26.6195C13.0293 26.6195 15.7106 23.9382 15.7106 20.6307C15.7106 17.3231 13.0293 14.6418 9.72175 14.6418C6.41421 14.6418 3.73291 17.3231 3.73291 20.6307C3.73291 23.9382 6.41421 26.6195 9.72175 26.6195Z" fill="white"/>
<path d="M28.2784 12.4867C31.5859 12.4867 34.2672 9.80542 34.2672 6.49788C34.2672 3.19033 31.5859 0.509033 28.2784 0.509033C24.9708 0.509033 22.2896 3.19033 22.2896 6.49788C22.2896 9.80542 24.9708 12.4867 28.2784 12.4867Z" fill="white"/>
<path fill-rule="evenodd" clip-rule="evenodd" d="M35.3501 28.3314C35.3501 27.6 35.9454 27.0082 36.675 27.0082C37.4064 27.0082 38 27.6035 38 28.3349L37.9947 33.6383C37.9911 36.3183 35.8182 38.4911 33.1365 38.4911H23.4165C22.6851 38.4911 22.0916 37.8976 22.0916 37.1662C22.0916 36.4348 22.6851 35.8412 23.4165 35.8412H33.1365C34.3554 35.8412 35.343 34.8536 35.3447 33.6347L35.3501 28.3314Z" fill="white"/>
<path fill-rule="evenodd" clip-rule="evenodd" d="M2.65909 10.6689C2.65909 11.4003 2.06377 11.9921 1.33239 11.9921C0.601008 11.9921 0.00915527 11.3968 0.00915527 10.6654L0.0144898 5.36204C0.0162218 2.68198 2.1909 0.509033 4.87263 0.509033H18.1169C18.8483 0.509033 19.4419 1.10262 19.4419 1.834C19.4419 2.56538 18.8483 3.15896 18.1169 3.15896H4.87263C3.65366 3.15896 2.66615 4.14647 2.66435 5.36551L2.65909 10.6689Z" fill="white"/>
<path fill-rule="evenodd" clip-rule="evenodd" d="M15.4597 25.8458C17.8729 27.616 19.4417 30.4726 19.4417 33.6914C19.4417 35.0676 18.5742 36.2672 16.979 37.0921C15.2177 38.0037 12.4724 38.4913 9.72175 38.4913C6.96935 38.4913 4.22402 38.0037 2.46267 37.0921C0.867445 36.2672 0 35.0676 0 33.6914C0 30.4726 1.56876 27.616 3.98196 25.8458C5.40232 27.4075 7.44807 28.3862 9.72175 28.3862C11.9936 28.3863 14.0411 27.4076 15.4597 25.8458Z" fill="white"/>
<path fill-rule="evenodd" clip-rule="evenodd" d="M34.0181 11.7128C36.4313 13.4829 38 16.3396 38 19.5583C38 20.9345 37.1326 22.134 35.5374 22.959C33.7761 23.8706 31.0307 24.3582 28.2783 24.3582C25.5277 24.3582 22.7823 23.8706 21.021 22.959C19.4258 22.134 18.5583 20.9345 18.5583 19.5583C18.5583 16.3395 20.1271 13.4829 22.5403 11.7128C23.9589 13.2745 26.0064 14.2532 28.2783 14.2532C30.552 14.2532 32.5977 13.2745 34.0181 11.7128Z" fill="white"/>
</g>
<defs>
<clipPath id="clip0_301_1017">
<rect width="38" height="38" fill="white" transform="translate(0 0.5)"/>
</clipPath>
</defs>
</svg>
